# xmcd CD database file
#
# Track frame offsets:
#	150
#	18045
#	37770
#	54797
#	73475
#	91282
#	106770
#	125675
#	143882
#	168483
#	191273
#	211613
#	230170
#	245163
#	261320
#	278007
#	296805
#	312340
#
# Disc length: 4434 seconds
#
# Revision: 0
# Processed by: cddbd v1.4PL0 Copyright (c) Steve Scherf et al.
# Submitted via: CDex 1.50beta10
#
DISCID=04115012
DTITLE=Randy Crawford - The very best of Randy Crawford
DYEAR=1993
DGENRE=Blues
TTITLE0=Street Life
TTITLE1=One Day I'll Fly Away
TTITLE2=Rainy Night In Georgia
TTITLE3=Almaz
TTITLE4=You Might Need Somebody
TTITLE5=Secret Combination
TTITLE6=Tender Falls The Rain
TTITLE7=This Old Heart Of Mine
TTITLE8=Imagine
TTITLE9=Knockin' On The Haven's Door
TTITLE10=Who's Crying Now
TTITLE11=Same Old Story
TTITLE12=One Hello
TTITLE13=I've Never Been To Me
TTITLE14=I Stand Accused
TTITLE15=Endlessly
TTITLE16=You Bring The Sun Out
TTITLE17=Everything Must Change
EXTD=YEAR: 1993
EXTT0=
EXTT1=
EXTT2=
EXTT3=
EXTT4=
EXTT5=
EXTT6=
EXTT7=
EXTT8=
EXTT9=
EXTT10=
EXTT11=
EXTT12=
EXTT13=
EXTT14=
EXTT15=
EXTT16=
EXTT17=
PLAYORDER=
